<svg width="280" height="40" viewBox="0 0 280 40" fill="none" xmlns="http://www.w3.org/2000/svg">
<path d="M0.981712 18.1406V16.8182H8.86168V18.1406H5.68484V27H4.15359V18.1406H0.981712ZM9.6907 27V19.3636H11.1275V20.5767H11.207C11.3462 20.1657 11.5915 19.8426 11.9428 19.6072C12.2975 19.3686 12.6985 19.2493 13.146 19.2493C13.2388 19.2493 13.3481 19.2526 13.4741 19.2592C13.6033 19.2659 13.7044 19.2741 13.7773 19.2841V20.706C13.7177 20.6894 13.6116 20.6712 13.4592 20.6513C13.3067 20.6281 13.1542 20.6165 13.0018 20.6165C12.6505 20.6165 12.3372 20.6911 12.0621 20.8402C11.7904 20.986 11.5749 21.1899 11.4158 21.4517C11.2567 21.7102 11.1772 22.0052 11.1772 22.3366V27H9.6907ZM17.2177 27.169C16.7338 27.169 16.2963 27.0795 15.9052 26.9006C15.5141 26.7183 15.2042 26.4548 14.9755 26.1101C14.7501 25.7654 14.6374 25.3428 14.6374 24.8423C14.6374 24.4115 14.7203 24.0568 14.886 23.7784C15.0517 23.5 15.2754 23.2796 15.5572 23.1172C15.8389 22.9548 16.1538 22.8321 16.5018 22.7493C16.8498 22.6664 17.2044 22.6035 17.5657 22.5604C18.0231 22.5073 18.3943 22.4643 18.6793 22.4311C18.9644 22.3946 19.1715 22.3366 19.3008 22.2571C19.43 22.1776 19.4947 22.0483 19.4947 21.8693V21.8345C19.4947 21.4003 19.372 21.0639 19.1268 20.8253C18.8848 20.5866 18.5236 20.4673 18.043 20.4673C17.5425 20.4673 17.1481 20.5784 16.8597 20.8004C16.5747 21.0192 16.3775 21.2628 16.2681 21.5312L14.8711 21.2131C15.0368 20.7491 15.2788 20.3745 15.5969 20.0895C15.9184 19.8011 16.288 19.5923 16.7056 19.4631C17.1232 19.3305 17.5624 19.2642 18.0231 19.2642C18.328 19.2642 18.6512 19.3007 18.9925 19.3736C19.3372 19.4432 19.6587 19.5724 19.957 19.7614C20.2586 19.9503 20.5056 20.2204 20.6978 20.5717C20.89 20.9197 20.9862 21.3722 20.9862 21.929V27H19.5344V25.956H19.4748C19.3787 26.1482 19.2345 26.3371 19.0423 26.5227C18.85 26.7083 18.6031 26.8625 18.3015 26.9851C17.9999 27.1077 17.6386 27.169 17.2177 27.169ZM17.5408 25.9759C17.9518 25.9759 18.3031 25.8946 18.5948 25.7322C18.8898 25.5698 19.1135 25.3577 19.266 25.0959C19.4218 24.8307 19.4996 24.5473 19.4996 24.2457V23.2614C19.4466 23.3144 19.3439 23.3641 19.1914 23.4105C19.0423 23.4536 18.8716 23.4917 18.6793 23.5249C18.4871 23.5547 18.2998 23.5829 18.1175 23.6094C17.9353 23.6326 17.7828 23.6525 17.6602 23.669C17.3718 23.7055 17.1083 23.7668 16.8697 23.853C16.6344 23.9392 16.4454 24.0634 16.3029 24.2259C16.1637 24.3849 16.0941 24.5971 16.0941 24.8622C16.0941 25.2301 16.23 25.5085 16.5018 25.6974C16.7736 25.883 17.1199 25.9759 17.5408 25.9759ZM22.9661 27V19.3636H24.4526V27H22.9661ZM23.7168 18.1854C23.4583 18.1854 23.2362 18.0992 23.0506 17.9268C22.8683 17.7512 22.7772 17.5424 22.7772 17.3004C22.7772 17.0552 22.8683 16.8464 23.0506 16.674C23.2362 16.4983 23.4583 16.4105 23.7168 16.4105C23.9753 16.4105 24.1957 16.4983 24.378 16.674C24.5636 16.8464 24.6564 17.0552 24.6564 17.3004C24.6564 17.5424 24.5636 17.7512 24.378 17.9268C24.1957 18.0992 23.9753 18.1854 23.7168 18.1854ZM27.9389 22.4659V27H26.4524V19.3636H27.8793V20.6065H27.9737C28.1494 20.2022 28.4245 19.8774 28.799 19.6321C29.1768 19.3868 29.6525 19.2642 30.2259 19.2642C30.7462 19.2642 31.2019 19.3736 31.593 19.5923C31.9841 19.8078 32.2874 20.1293 32.5028 20.5568C32.7183 20.9844 32.826 21.513 32.826 22.1428V27H31.3395V22.3217C31.3395 21.7682 31.1953 21.3357 30.907 21.0241C30.6186 20.7093 30.2225 20.5518 29.7188 20.5518C29.3741 20.5518 29.0675 20.6264 28.799 20.7756C28.5339 20.9247 28.3234 21.1435 28.1676 21.4318C28.0152 21.7169 27.9389 22.0616 27.9389 22.4659ZM34.8196 27V19.3636H36.3061V27H34.8196ZM35.5703 18.1854C35.3118 18.1854 35.0897 18.0992 34.9041 17.9268C34.7218 17.7512 34.6307 17.5424 34.6307 17.3004C34.6307 17.0552 34.7218 16.8464 34.9041 16.674C35.0897 16.4983 35.3118 16.4105 35.5703 16.4105C35.8288 16.4105 36.0492 16.4983 36.2315 16.674C36.4171 16.8464 36.5099 17.0552 36.5099 17.3004C36.5099 17.5424 36.4171 17.7512 36.2315 17.9268C36.0492 18.0992 35.8288 18.1854 35.5703 18.1854ZM39.7924 22.4659V27H38.3059V19.3636H39.7328V20.6065H39.8272C40.0029 20.2022 40.278 19.8774 40.6525 19.6321C41.0304 19.3868 41.506 19.2642 42.0794 19.2642C42.5997 19.2642 43.0555 19.3736 43.4466 19.5923C43.8377 19.8078 44.1409 20.1293 44.3564 20.5568C44.5718 20.9844 44.6795 21.513 44.6795 22.1428V27H43.193V22.3217C43.193 21.7682 43.0488 21.3357 42.7605 21.0241C42.4721 20.7093 42.0761 20.5518 41.5723 20.5518C41.2276 20.5518 40.921 20.6264 40.6525 20.7756C40.3874 20.9247 40.1769 21.1435 40.0211 21.4318C39.8687 21.7169 39.7924 22.0616 39.7924 22.4659ZM49.8748 30.0227C49.2683 30.0227 48.7463 29.9432 48.3088 29.7841C47.8746 29.625 47.5199 29.4145 47.2449 29.1527C46.9698 28.8909 46.7643 28.6042 46.6284 28.2926L47.9061 27.7656C47.9956 27.9115 48.1149 28.0656 48.264 28.228C48.4165 28.3937 48.622 28.5346 48.8805 28.6506C49.1423 28.7666 49.4788 28.8246 49.8897 28.8246C50.4532 28.8246 50.9189 28.687 51.2868 28.4119C51.6547 28.1402 51.8386 27.706 51.8386 27.1094V25.608H51.7441C51.6547 25.7704 51.5254 25.951 51.3564 26.1499C51.1906 26.3487 50.9619 26.5211 50.6703 26.6669C50.3786 26.8127 49.9991 26.8857 49.5318 26.8857C48.9286 26.8857 48.385 26.7448 47.9011 26.4631C47.4205 26.178 47.0394 25.7588 46.7576 25.2053C46.4792 24.6484 46.34 23.964 46.34 23.152C46.34 22.34 46.4776 21.6439 46.7527 21.0639C47.0311 20.4839 47.4122 20.0398 47.8961 19.7315C48.38 19.42 48.9286 19.2642 49.5417 19.2642C50.0157 19.2642 50.3985 19.3438 50.6902 19.5028C50.9818 19.6586 51.2089 19.8409 51.3713 20.0497C51.537 20.2585 51.6646 20.4425 51.7541 20.6016H51.8635V19.3636H53.3201V27.169C53.3201 27.8253 53.1677 28.3639 52.8627 28.7848C52.5578 29.2057 52.1452 29.5173 51.6248 29.7195C51.1078 29.9216 50.5244 30.0227 49.8748 30.0227ZM49.8599 25.6527C50.2875 25.6527 50.6487 25.5533 50.9437 25.3544C51.242 25.1522 51.4674 24.8639 51.6199 24.4893C51.7756 24.1115 51.8535 23.6591 51.8535 23.1321C51.8535 22.6184 51.7773 22.166 51.6248 21.7749C51.4724 21.3838 51.2486 21.0788 50.9537 20.8601C50.6587 20.638 50.2941 20.527 49.8599 20.527C49.4125 20.527 49.0396 20.643 48.7413 20.875C48.443 21.1037 48.2176 21.4152 48.0652 21.8097C47.916 22.2041 47.8414 22.6449 47.8414 23.1321C47.8414 23.6326 47.9177 24.0717 48.0701 24.4496C48.2226 24.8274 48.448 25.1224 48.7463 25.3345C49.0479 25.5466 49.4191 25.6527 49.8599 25.6527ZM59.1381 16.8182H61.0025L64.244 24.733H64.3633L67.6048 16.8182H69.4691V27H68.0075V19.6321H67.913L64.9102 26.9851H63.6971L60.6942 19.6271H60.5998V27H59.1381V16.8182ZM74.7999 27.1541C74.084 27.1541 73.4592 26.9901 72.9256 26.6619C72.392 26.3338 71.9777 25.8748 71.6827 25.2848C71.3877 24.6948 71.2402 24.0054 71.2402 23.2166C71.2402 22.4245 71.3877 21.7318 71.6827 21.1385C71.9777 20.5452 72.392 20.0845 72.9256 19.7564C73.4592 19.4283 74.084 19.2642 74.7999 19.2642C75.5158 19.2642 76.1406 19.4283 76.6742 19.7564C77.2078 20.0845 77.6221 20.5452 77.9171 21.1385C78.2121 21.7318 78.3596 22.4245 78.3596 23.2166C78.3596 24.0054 78.2121 24.6948 77.9171 25.2848C77.6221 25.8748 77.2078 26.3338 76.6742 26.6619C76.1406 26.9901 75.5158 27.1541 74.7999 27.1541ZM74.8049 25.9062C75.2689 25.9062 75.6534 25.7836 75.9583 25.5384C76.2632 25.2931 76.4886 24.9666 76.6344 24.5589C76.7836 24.1513 76.8581 23.7022 76.8581 23.2116C76.8581 22.7244 76.7836 22.277 76.6344 21.8693C76.4886 21.4583 76.2632 21.1286 75.9583 20.88C75.6534 20.6314 75.2689 20.5071 74.8049 20.5071C74.3375 20.5071 73.9498 20.6314 73.6415 20.88C73.3366 21.1286 73.1096 21.4583 72.9604 21.8693C72.8146 22.277 72.7417 22.7244 72.7417 23.2116C72.7417 23.7022 72.8146 24.1513 72.9604 24.5589C73.1096 24.9666 73.3366 25.2931 73.6415 25.5384C73.9498 25.7836 74.3375 25.9062 74.8049 25.9062ZM82.8775 27.1491C82.261 27.1491 81.7108 26.9917 81.2269 26.6768C80.7463 26.3587 80.3685 25.9062 80.0934 25.3196C79.8216 24.7296 79.6857 24.022 79.6857 23.1967C79.6857 22.3714 79.8233 21.6655 80.0984 21.0788C80.3768 20.4922 80.7579 20.0431 81.2418 19.7315C81.7257 19.42 82.2743 19.2642 82.8874 19.2642C83.3614 19.2642 83.7425 19.3438 84.0309 19.5028C84.3226 19.6586 84.5479 19.8409 84.707 20.0497C84.8694 20.2585 84.9954 20.4425 85.0849 20.6016H85.1744V16.8182H86.6609V27H85.2092V25.8118H85.0849C84.9954 25.9742 84.8661 26.1598 84.6971 26.3686C84.5314 26.5774 84.3027 26.7597 84.011 26.9155C83.7193 27.0713 83.3415 27.1491 82.8775 27.1491ZM83.2056 25.8814C83.6332 25.8814 83.9944 25.7687 84.2894 25.5433C84.5877 25.3146 84.8131 24.9981 84.9656 24.5938C85.1213 24.1894 85.1992 23.7187 85.1992 23.1818C85.1992 22.6515 85.123 22.1875 84.9705 21.7898C84.8181 21.392 84.5943 21.0821 84.2994 20.8601C84.0044 20.638 83.6398 20.527 83.2056 20.527C82.7582 20.527 82.3853 20.643 82.087 20.875C81.7887 21.107 81.5633 21.4235 81.4109 21.8246C81.2617 22.2256 81.1871 22.678 81.1871 23.1818C81.1871 23.6922 81.2634 24.1513 81.4158 24.5589C81.5683 24.9666 81.7937 25.2898 82.092 25.5284C82.3936 25.7637 82.7648 25.8814 83.2056 25.8814ZM92.0737 27.1541C91.3213 27.1541 90.6734 26.9934 90.1298 26.6719C89.5895 26.3471 89.1719 25.8913 88.877 25.3047C88.5853 24.7147 88.4395 24.0237 88.4395 23.2315C88.4395 22.4493 88.5853 21.7599 88.877 21.1634C89.1719 20.5668 89.5829 20.1011 90.1099 19.7663C90.6402 19.4316 91.26 19.2642 91.9693 19.2642C92.4002 19.2642 92.8178 19.3355 93.2221 19.478C93.6265 19.6205 93.9894 19.8442 94.3109 20.1491C94.6324 20.4541 94.8859 20.8501 95.0716 21.3374C95.2572 21.8213 95.35 22.4096 95.35 23.1023V23.6293H89.2797V22.5156H93.8933C93.8933 22.1245 93.8137 21.7782 93.6547 21.4766C93.4956 21.1716 93.2718 20.9313 92.9835 20.7557C92.6984 20.58 92.3637 20.4922 91.9792 20.4922C91.5616 20.4922 91.197 20.5949 90.8855 20.8004C90.5772 21.0026 90.3386 21.2678 90.1696 21.5959C90.0038 21.9207 89.921 22.2737 89.921 22.6548V23.5249C89.921 24.0353 90.0105 24.4695 90.1895 24.8274C90.3717 25.1854 90.6253 25.4588 90.9501 25.6477C91.2749 25.8333 91.6544 25.9261 92.0886 25.9261C92.3703 25.9261 92.6272 25.8864 92.8592 25.8068C93.0912 25.724 93.2917 25.6013 93.4608 25.4389C93.6298 25.2765 93.7591 25.076 93.8485 24.8374L95.2555 25.0909C95.1428 25.5052 94.9406 25.8681 94.649 26.1797C94.3606 26.4879 93.9977 26.7282 93.5602 26.9006C93.126 27.0696 92.6305 27.1541 92.0737 27.1541Z" fill="black" fill-opacity="0.6"/>
<path d="M106 22C106 18.2306 109.056 15.175 112.825 15.175H133.175C136.944 15.175 140 18.2306 140 22C140 25.7693 136.944 28.825 133.175 28.825H112.825C109.056 28.825 106 25.7693 106 22Z" fill="#1D84C6" fill-opacity="0.15"/>
<g filter="url(#filter0_ddd_2_1590)">
<path d="M120 22.25C120 16.7272 124.477 12.25 130 12.25C135.523 12.25 140 16.7272 140 22.25C140 27.7728 135.523 32.25 130 32.25C124.477 32.25 120 27.7728 120 22.25Z" fill="#1D84C6"/>
</g>
<rect width="66" height="2" transform="translate(182 4)" fill="white"/>
<path d="M186.959 9V0.272727H188.276V7.86648H192.23V9H186.959ZM195.685 9.14489C195.27 9.14489 194.895 9.06818 194.56 8.91477C194.225 8.75852 193.959 8.53267 193.763 8.23722C193.57 7.94176 193.473 7.57955 193.473 7.15057C193.473 6.78125 193.544 6.47727 193.686 6.23864C193.828 6 194.02 5.81108 194.262 5.67188C194.503 5.53267 194.773 5.42756 195.071 5.35653C195.369 5.28551 195.673 5.23153 195.983 5.1946C196.375 5.14915 196.693 5.11222 196.938 5.08381C197.182 5.05256 197.36 5.00284 197.47 4.93466C197.581 4.86648 197.637 4.75568 197.637 4.60227V4.57244C197.637 4.20028 197.531 3.91193 197.321 3.70739C197.114 3.50284 196.804 3.40057 196.392 3.40057C195.963 3.40057 195.625 3.49574 195.378 3.68608C195.134 3.87358 194.965 4.08239 194.871 4.3125L193.673 4.03977C193.815 3.64205 194.023 3.32102 194.296 3.0767C194.571 2.82955 194.888 2.65057 195.246 2.53977C195.604 2.42614 195.98 2.36932 196.375 2.36932C196.637 2.36932 196.913 2.40057 197.206 2.46307C197.502 2.52273 197.777 2.63352 198.033 2.79545C198.291 2.95739 198.503 3.18892 198.668 3.49006C198.833 3.78835 198.915 4.17614 198.915 4.65341V9H197.671V8.10511H197.619C197.537 8.26989 197.413 8.43182 197.249 8.59091C197.084 8.75 196.872 8.8821 196.614 8.98722C196.355 9.09233 196.046 9.14489 195.685 9.14489ZM195.962 8.12216C196.314 8.12216 196.615 8.05256 196.865 7.91335C197.118 7.77415 197.31 7.59233 197.44 7.3679C197.574 7.14062 197.641 6.89773 197.641 6.6392V5.79545C197.595 5.84091 197.507 5.88352 197.377 5.9233C197.249 5.96023 197.102 5.9929 196.938 6.02131C196.773 6.04687 196.612 6.07102 196.456 6.09375C196.3 6.11364 196.169 6.13068 196.064 6.14489C195.817 6.17614 195.591 6.22869 195.387 6.30256C195.185 6.37642 195.023 6.48295 194.901 6.62216C194.781 6.75852 194.722 6.94034 194.722 7.16761C194.722 7.48295 194.838 7.72159 195.071 7.88352C195.304 8.04261 195.601 8.12216 195.962 8.12216ZM202.036 5.11364V9H200.762V2.45455H201.985V3.51989H202.066C202.217 3.1733 202.452 2.89489 202.773 2.68466C203.097 2.47443 203.505 2.36932 203.996 2.36932C204.442 2.36932 204.833 2.46307 205.168 2.65057C205.503 2.83523 205.763 3.1108 205.948 3.47727C206.133 3.84375 206.225 4.29687 206.225 4.83665V9H204.951V4.99006C204.951 4.51562 204.827 4.14489 204.58 3.87784C204.333 3.60795 203.994 3.47301 203.562 3.47301C203.266 3.47301 203.003 3.53693 202.773 3.66477C202.546 3.79261 202.366 3.98011 202.232 4.22727C202.101 4.47159 202.036 4.76705 202.036 5.11364ZM210.828 11.5909C210.308 11.5909 209.861 11.5227 209.486 11.3864C209.114 11.25 208.81 11.0696 208.574 10.8452C208.338 10.6207 208.162 10.375 208.046 10.108L209.141 9.65625C209.217 9.78125 209.32 9.91335 209.448 10.0526C209.578 10.1946 209.754 10.3153 209.976 10.4148C210.2 10.5142 210.489 10.5639 210.841 10.5639C211.324 10.5639 211.723 10.446 212.038 10.2102C212.354 9.97727 212.511 9.60511 212.511 9.09375V7.80682H212.43C212.354 7.94602 212.243 8.10085 212.098 8.27131C211.956 8.44176 211.76 8.58949 211.51 8.71449C211.26 8.83949 210.935 8.90199 210.534 8.90199C210.017 8.90199 209.551 8.78125 209.136 8.53977C208.725 8.29545 208.398 7.93608 208.156 7.46165C207.918 6.98437 207.798 6.39773 207.798 5.7017C207.798 5.00568 207.916 4.40909 208.152 3.91193C208.391 3.41477 208.717 3.03409 209.132 2.76989C209.547 2.50284 210.017 2.36932 210.543 2.36932C210.949 2.36932 211.277 2.4375 211.527 2.57386C211.777 2.70739 211.972 2.86364 212.111 3.04261C212.253 3.22159 212.362 3.37926 212.439 3.51562H212.533V2.45455H213.781V9.14489C213.781 9.70739 213.651 10.169 213.389 10.5298C213.128 10.8906 212.774 11.1577 212.328 11.331C211.885 11.5043 211.385 11.5909 210.828 11.5909ZM210.815 7.84517C211.182 7.84517 211.492 7.75994 211.744 7.58949C212 7.41619 212.193 7.16903 212.324 6.84801C212.457 6.52415 212.524 6.13636 212.524 5.68466C212.524 5.24432 212.459 4.85653 212.328 4.52131C212.198 4.18608 212.006 3.92472 211.753 3.73722C211.5 3.54687 211.188 3.4517 210.815 3.4517C210.432 3.4517 210.112 3.55114 209.857 3.75C209.601 3.94602 209.408 4.21307 209.277 4.55114C209.149 4.8892 209.085 5.26705 209.085 5.68466C209.085 6.11364 209.151 6.49006 209.281 6.81392C209.412 7.13778 209.605 7.39062 209.861 7.57244C210.119 7.75426 210.438 7.84517 210.815 7.84517ZM219.786 6.28551V2.45455H221.065V9H219.812V7.86648H219.744C219.593 8.21591 219.352 8.5071 219.019 8.74006C218.69 8.97017 218.279 9.08523 217.788 9.08523C217.367 9.08523 216.995 8.9929 216.671 8.80824C216.35 8.62074 216.098 8.34375 215.913 7.97727C215.731 7.6108 215.64 7.15767 215.64 6.6179V2.45455H216.914V6.46449C216.914 6.91051 217.038 7.26562 217.285 7.52983C217.532 7.79403 217.853 7.92614 218.248 7.92614C218.487 7.92614 218.724 7.86648 218.96 7.74716C219.198 7.62784 219.396 7.44744 219.552 7.20597C219.711 6.96449 219.789 6.65767 219.786 6.28551ZM224.832 9.14489C224.417 9.14489 224.042 9.06818 223.707 8.91477C223.371 8.75852 223.106 8.53267 222.91 8.23722C222.717 7.94176 222.62 7.57955 222.62 7.15057C222.62 6.78125 222.691 6.47727 222.833 6.23864C222.975 6 223.167 5.81108 223.408 5.67188C223.65 5.53267 223.92 5.42756 224.218 5.35653C224.516 5.28551 224.82 5.23153 225.13 5.1946C225.522 5.14915 225.84 5.11222 226.085 5.08381C226.329 5.05256 226.506 5.00284 226.617 4.93466C226.728 4.86648 226.783 4.75568 226.783 4.60227V4.57244C226.783 4.20028 226.678 3.91193 226.468 3.70739C226.261 3.50284 225.951 3.40057 225.539 3.40057C225.11 3.40057 224.772 3.49574 224.525 3.68608C224.281 3.87358 224.112 4.08239 224.018 4.3125L222.82 4.03977C222.962 3.64205 223.17 3.32102 223.442 3.0767C223.718 2.82955 224.035 2.65057 224.393 2.53977C224.751 2.42614 225.127 2.36932 225.522 2.36932C225.783 2.36932 226.06 2.40057 226.353 2.46307C226.648 2.52273 226.924 2.63352 227.18 2.79545C227.438 2.95739 227.65 3.18892 227.815 3.49006C227.979 3.78835 228.062 4.17614 228.062 4.65341V9H226.817V8.10511H226.766C226.684 8.26989 226.56 8.43182 226.396 8.59091C226.231 8.75 226.019 8.8821 225.761 8.98722C225.502 9.09233 225.192 9.14489 224.832 9.14489ZM225.109 8.12216C225.461 8.12216 225.762 8.05256 226.012 7.91335C226.265 7.77415 226.457 7.59233 226.587 7.3679C226.721 7.14062 226.788 6.89773 226.788 6.6392V5.79545C226.742 5.84091 226.654 5.88352 226.523 5.9233C226.396 5.96023 226.249 5.9929 226.085 6.02131C225.92 6.04687 225.759 6.07102 225.603 6.09375C225.447 6.11364 225.316 6.13068 225.211 6.14489C224.964 6.17614 224.738 6.22869 224.533 6.30256C224.332 6.37642 224.17 6.48295 224.048 6.62216C223.928 6.75852 223.869 6.94034 223.869 7.16761C223.869 7.48295 223.985 7.72159 224.218 7.88352C224.451 8.04261 224.748 8.12216 225.109 8.12216ZM232.653 11.5909C232.133 11.5909 231.686 11.5227 231.311 11.3864C230.939 11.25 230.635 11.0696 230.399 10.8452C230.163 10.6207 229.987 10.375 229.871 10.108L230.966 9.65625C231.042 9.78125 231.145 9.91335 231.273 10.0526C231.403 10.1946 231.579 10.3153 231.801 10.4148C232.025 10.5142 232.314 10.5639 232.666 10.5639C233.149 10.5639 233.548 10.446 233.863 10.2102C234.179 9.97727 234.336 9.60511 234.336 9.09375V7.80682H234.255C234.179 7.94602 234.068 8.10085 233.923 8.27131C233.781 8.44176 233.585 8.58949 233.335 8.71449C233.085 8.83949 232.76 8.90199 232.359 8.90199C231.842 8.90199 231.376 8.78125 230.961 8.53977C230.55 8.29545 230.223 7.93608 229.981 7.46165C229.743 6.98437 229.623 6.39773 229.623 5.7017C229.623 5.00568 229.741 4.40909 229.977 3.91193C230.216 3.41477 230.542 3.03409 230.957 2.76989C231.372 2.50284 231.842 2.36932 232.368 2.36932C232.774 2.36932 233.102 2.4375 233.352 2.57386C233.602 2.70739 233.797 2.86364 233.936 3.04261C234.078 3.22159 234.187 3.37926 234.264 3.51562H234.358V2.45455H235.606V9.14489C235.606 9.70739 235.476 10.169 235.214 10.5298C234.953 10.8906 234.599 11.1577 234.153 11.331C233.71 11.5043 233.21 11.5909 232.653 11.5909ZM232.64 7.84517C233.007 7.84517 233.317 7.75994 233.569 7.58949C233.825 7.41619 234.018 7.16903 234.149 6.84801C234.282 6.52415 234.349 6.13636 234.349 5.68466C234.349 5.24432 234.284 4.85653 234.153 4.52131C234.023 4.18608 233.831 3.92472 233.578 3.73722C233.325 3.54687 233.013 3.4517 232.64 3.4517C232.257 3.4517 231.937 3.55114 231.682 3.75C231.426 3.94602 231.233 4.21307 231.102 4.55114C230.974 4.8892 230.91 5.26705 230.91 5.68466C230.91 6.11364 230.976 6.49006 231.106 6.81392C231.237 7.13778 231.43 7.39062 231.686 7.57244C231.944 7.75426 232.263 7.84517 232.64 7.84517ZM240.286 9.1321C239.641 9.1321 239.086 8.99432 238.62 8.71875C238.157 8.44034 237.799 8.04972 237.546 7.54688C237.296 7.04119 237.171 6.44886 237.171 5.76989C237.171 5.09943 237.296 4.50852 237.546 3.99716C237.799 3.4858 238.151 3.08665 238.603 2.79972C239.057 2.51278 239.589 2.36932 240.197 2.36932C240.566 2.36932 240.924 2.4304 241.271 2.55256C241.617 2.67472 241.928 2.86648 242.204 3.12784C242.479 3.3892 242.697 3.72869 242.856 4.14631C243.015 4.56108 243.094 5.06534 243.094 5.65909V6.1108H237.891V5.15625H241.846C241.846 4.82102 241.778 4.52415 241.641 4.26562C241.505 4.00426 241.313 3.7983 241.066 3.64773C240.822 3.49716 240.535 3.42188 240.205 3.42188C239.847 3.42188 239.535 3.50994 239.268 3.68608C239.003 3.85937 238.799 4.08665 238.654 4.3679C238.512 4.64631 238.441 4.94886 238.441 5.27557V6.02131C238.441 6.45881 238.518 6.83097 238.671 7.13778C238.827 7.4446 239.045 7.67898 239.323 7.84091C239.601 8 239.927 8.07955 240.299 8.07955C240.54 8.07955 240.761 8.04545 240.959 7.97727C241.158 7.90625 241.33 7.80114 241.475 7.66193C241.62 7.52273 241.731 7.35085 241.807 7.14631L243.013 7.36364C242.917 7.71875 242.744 8.02983 242.494 8.29688C242.246 8.56108 241.935 8.76705 241.56 8.91477C241.188 9.05966 240.763 9.1321 240.286 9.1321Z" fill="#111827"/>
<path d="M182.959 27V18.2727H188.43V19.4062H184.276V22.0653H188.145V23.1946H184.276V25.8665H188.482V27H182.959ZM191.361 23.1136V27H190.087V20.4545H191.31V21.5199H191.391C191.542 21.1733 191.777 20.8949 192.098 20.6847C192.422 20.4744 192.83 20.3693 193.321 20.3693C193.767 20.3693 194.158 20.4631 194.493 20.6506C194.828 20.8352 195.088 21.1108 195.273 21.4773C195.458 21.8437 195.55 22.2969 195.55 22.8366V27H194.276V22.9901C194.276 22.5156 194.152 22.1449 193.905 21.8778C193.658 21.608 193.319 21.473 192.887 21.473C192.591 21.473 192.328 21.5369 192.098 21.6648C191.871 21.7926 191.691 21.9801 191.557 22.2273C191.426 22.4716 191.361 22.767 191.361 23.1136ZM200.003 29.5909C199.483 29.5909 199.036 29.5227 198.661 29.3864C198.289 29.25 197.985 29.0696 197.749 28.8452C197.513 28.6207 197.337 28.375 197.221 28.108L198.316 27.6562C198.392 27.7812 198.495 27.9134 198.623 28.0526C198.753 28.1946 198.929 28.3153 199.151 28.4148C199.375 28.5142 199.664 28.5639 200.016 28.5639C200.499 28.5639 200.898 28.446 201.213 28.2102C201.529 27.9773 201.686 27.6051 201.686 27.0938V25.8068H201.605C201.529 25.946 201.418 26.1009 201.273 26.2713C201.131 26.4418 200.935 26.5895 200.685 26.7145C200.435 26.8395 200.11 26.902 199.709 26.902C199.192 26.902 198.726 26.7812 198.311 26.5398C197.9 26.2955 197.573 25.9361 197.331 25.4616C197.093 24.9844 196.973 24.3977 196.973 23.7017C196.973 23.0057 197.091 22.4091 197.327 21.9119C197.566 21.4148 197.892 21.0341 198.307 20.7699C198.722 20.5028 199.192 20.3693 199.718 20.3693C200.124 20.3693 200.452 20.4375 200.702 20.5739C200.952 20.7074 201.147 20.8636 201.286 21.0426C201.428 21.2216 201.537 21.3793 201.614 21.5156H201.708V20.4545H202.956V27.1449C202.956 27.7074 202.826 28.169 202.564 28.5298C202.303 28.8906 201.949 29.1577 201.503 29.331C201.06 29.5043 200.56 29.5909 200.003 29.5909ZM199.99 25.8452C200.357 25.8452 200.667 25.7599 200.919 25.5895C201.175 25.4162 201.368 25.169 201.499 24.848C201.632 24.5241 201.699 24.1364 201.699 23.6847C201.699 23.2443 201.634 22.8565 201.503 22.5213C201.373 22.1861 201.181 21.9247 200.928 21.7372C200.675 21.5469 200.363 21.4517 199.99 21.4517C199.607 21.4517 199.287 21.5511 199.032 21.75C198.776 21.946 198.583 22.2131 198.452 22.5511C198.324 22.8892 198.26 23.267 198.26 23.6847C198.26 24.1136 198.326 24.4901 198.456 24.8139C198.587 25.1378 198.78 25.3906 199.036 25.5724C199.294 25.7543 199.613 25.8452 199.99 25.8452ZM205.939 18.2727V27H204.665V18.2727H205.939ZM207.653 27V20.4545H208.928V27H207.653ZM208.297 19.4446C208.075 19.4446 207.885 19.3707 207.726 19.223C207.57 19.0724 207.491 18.8935 207.491 18.6861C207.491 18.4759 207.57 18.2969 207.726 18.1491C207.885 17.9986 208.075 17.9233 208.297 17.9233C208.518 17.9233 208.707 17.9986 208.864 18.1491C209.023 18.2969 209.102 18.4759 209.102 18.6861C209.102 18.8935 209.023 19.0724 208.864 19.223C208.707 19.3707 208.518 19.4446 208.297 19.4446ZM215.547 22.0526L214.392 22.2571C214.343 22.1094 214.267 21.9687 214.162 21.8352C214.059 21.7017 213.92 21.5923 213.744 21.5071C213.568 21.4219 213.348 21.3793 213.083 21.3793C212.723 21.3793 212.422 21.4602 212.18 21.6222C211.939 21.7812 211.818 21.9872 211.818 22.2401C211.818 22.4588 211.899 22.6349 212.061 22.7685C212.223 22.902 212.484 23.0114 212.845 23.0966L213.885 23.3352C214.487 23.4744 214.936 23.6889 215.231 23.9787C215.527 24.2685 215.674 24.6449 215.674 25.108C215.674 25.5 215.561 25.8494 215.333 26.1562C215.109 26.4602 214.795 26.6989 214.392 26.8722C213.991 27.0455 213.527 27.1321 212.998 27.1321C212.265 27.1321 211.667 26.9759 211.204 26.6634C210.741 26.348 210.457 25.9006 210.352 25.321L211.583 25.1335C211.66 25.4545 211.818 25.6974 212.056 25.8622C212.295 26.0241 212.606 26.1051 212.99 26.1051C213.407 26.1051 213.741 26.0185 213.991 25.8452C214.241 25.669 214.366 25.4545 214.366 25.2017C214.366 24.9972 214.289 24.8253 214.136 24.6861C213.985 24.5469 213.754 24.4418 213.441 24.3707L212.333 24.1278C211.723 23.9886 211.271 23.767 210.978 23.4631C210.689 23.1591 210.544 22.7741 210.544 22.3082C210.544 21.9219 210.652 21.5838 210.868 21.294C211.083 21.0043 211.382 20.7784 211.762 20.6165C212.143 20.4517 212.579 20.3693 213.071 20.3693C213.778 20.3693 214.335 20.5227 214.741 20.8295C215.147 21.1335 215.416 21.5412 215.547 22.0526ZM218.349 23.1136V27H217.075V18.2727H218.332V21.5199H218.413C218.567 21.1676 218.801 20.8878 219.116 20.6804C219.432 20.473 219.844 20.3693 220.352 20.3693C220.801 20.3693 221.193 20.4616 221.528 20.6463C221.866 20.831 222.128 21.1065 222.312 21.473C222.5 21.8366 222.594 22.2912 222.594 22.8366V27H221.32V22.9901C221.32 22.5099 221.196 22.1378 220.949 21.8736C220.702 21.6065 220.358 21.473 219.918 21.473C219.616 21.473 219.347 21.5369 219.108 21.6648C218.872 21.7926 218.686 21.9801 218.55 22.2273C218.416 22.4716 218.349 22.767 218.349 23.1136Z" fill="#1D84C6"/>
<path d="M251 21L256 26L261 21H251Z" fill="#6B7280"/>
<rect x="170.5" y="4.5" width="109" height="35" rx="7.5" stroke="#D1D5DB"/>
<defs>
<filter id="filter0_ddd_2_1590" x="117" y="10.25" width="26" height="26" filterUnits="userSpaceOnUse" color-interpolation-filters="sRGB">
<feFlood flood-opacity="0" result="BackgroundImageFix"/>
<feColorMatrix in="SourceAlpha" type="matrix" values="0 0 0 0 0 0 0 0 0 0 0 0 0 0 0 0 0 0 127 0" result="hardAlpha"/>
<feOffset dy="1"/>
<feGaussianBlur stdDeviation="1.5"/>
<feColorMatrix type="matrix" values="0 0 0 0 0 0 0 0 0 0 0 0 0 0 0 0 0 0 0.2 0"/>
<feBlend mode="normal" in2="BackgroundImageFix" result="effect1_dropShadow_2_1590"/>
<feColorMatrix in="SourceAlpha" type="matrix" values="0 0 0 0 0 0 0 0 0 0 0 0 0 0 0 0 0 0 127 0" result="hardAlpha"/>
<feOffset dy="2"/>
<feGaussianBlur stdDeviation="0.5"/>
<feColorMatrix type="matrix" values="0 0 0 0 0 0 0 0 0 0 0 0 0 0 0 0 0 0 0.12 0"/>
<feBlend mode="normal" in2="effect1_dropShadow_2_1590" result="effect2_dropShadow_2_1590"/>
<feColorMatrix in="SourceAlpha" type="matrix" values="0 0 0 0 0 0 0 0 0 0 0 0 0 0 0 0 0 0 127 0" result="hardAlpha"/>
<feOffset dy="1"/>
<feGaussianBlur stdDeviation="0.5"/>
<feColorMatrix type="matrix" values="0 0 0 0 0 0 0 0 0 0 0 0 0 0 0 0 0 0 0.14 0"/>
<feBlend mode="normal" in2="effect2_dropShadow_2_1590" result="effect3_dropShadow_2_1590"/>
<feBlend mode="normal" in="SourceGraphic" in2="effect3_dropShadow_2_1590" result="shape"/>
</filter>
</defs>
</svg>
